<?xml version="1.0" encoding="iso-8859-1"?>
<!-- Uploaded to: SVG Repo, www.svgrepo.com, Generator: SVG Repo Mixer Tools -->
<svg fill="#1d1d1d" height="32px" width="32px" version="1.1" id="Layer_1" xmlns="http://www.w3.org/2000/svg" xmlns:xlink="http://www.w3.org/1999/xlink" 
	 viewBox="0 0 508.05 508.05" xml:space="preserve">
<g>
	<g>
		<path d="M503.925,180.407l-176.5-176.4c-5.3-5.3-14.7-5.3-20,0l-58,58c-3.3,3.3-4.1,8.8-4.1,9l-6.9,95.4l-234.3,234.1
			c-5.5,5.5-5.5,14.4,0,19.9l83,83c8.8,8.8,17.2,2.8,20,0l234.3-234.1l95.5-6.9c0.2,0,5.7-0.9,9-4.1l58-58
			C509.425,194.807,509.425,185.907,503.925,180.407z M97.125,473.507l-63-63l31.7-31.7l13.3,13.2c5.4,5.4,14.8,5.1,20,0
			c5.5-5.5,5.5-14.4,0-19.9l-13.3-13.3l20-19.9l33.2,33.2c6.2,6.2,14.4,5.5,20,0c5.5-5.5,5.5-14.4,0-19.9l-33.2-33.2l126.4-126.4
			l63.1,63L97.125,473.507z M340.525,241.007l-73.9-73.8l4.6-63.5l132.8,132.7L340.525,241.007z M435.925,228.407l-156.6-156.5
			l38.1-38l156.5,156.4L435.925,228.407z"/>
	</g>
</g>
<g>
	<g>
		<path d="M249.225,258.607c-5.6-5.5-14.5-5.5-20,0l-29.2,29.2c-5.5,5.5-5.5,14.4,0,19.9c5.3,5.3,14.7,5.3,20,0l29.2-29.2
			C254.725,273.007,254.725,264.107,249.225,258.607z"/>
	</g>
</g>
</svg>