<svg width="256" height="256" viewBox="0 0 256 256" fill="none" xmlns="http://www.w3.org/2000/svg">
<path d="M240.302 150.643C238.492 135.224 242.299 117.451 248.911 98.5033C236.497 105.062 224.602 117.257 220.601 127.626C216.565 120.753 217.212 107.866 221.213 99.4924C206.545 105.91 198.492 115.942 192.56 129.169C186.838 122.745 183.764 112.913 182.028 101.358C173.53 110.547 167.202 120.025 163.737 129.883C156.443 121.253 152.118 109.485 149.072 96.3649C140.957 104.719 135.351 115.307 132.622 128.455C125.361 114.38 116.232 102.637 105.57 92.799C106.503 104.801 104.829 115.731 100.58 125.603C95.8226 116.546 88.7611 109.066 79.9405 102.783C80.8509 112.834 78.7659 121.59 73.958 129.169C71.429 116.903 64.3871 105.857 54.2262 95.6512C55.5272 109.847 54.1784 121.891 50.4664 132.021C47.4063 120.017 41.3395 111.972 32.8983 107.063C33.4181 114.748 32.1705 121.351 28.2308 126.317C23.0071 115.47 12.9051 108.248 1.40097 102.072C9.98833 117.704 16.6902 133.656 17.2156 150.646C17.2156 150.646 50.8335 145.366 72.5 143C94.4102 140.607 106.459 139.53 128.5 139.5C150.923 139.469 163.712 140.542 186 143C207.286 145.348 240.302 150.643 240.302 150.643Z" fill="#AFE97D"/>
<path d="M240.298 153.289C240.203 144.508 243.408 134.739 248.26 124.477C240.885 127.423 233.465 133.571 230.594 139.164C228.736 135.057 229.87 127.847 232.622 123.376C223.988 126.109 218.858 131.269 214.73 138.354C211.896 134.399 210.756 128.684 210.47 122.081C205.141 126.741 201.015 131.694 198.476 137.031C194.889 131.741 193.161 124.863 192.233 117.301C187.168 121.514 183.382 127.134 181.06 134.366C177.819 126.015 173.386 118.864 167.978 112.693C167.785 119.499 166.189 125.547 163.209 130.845C161.075 125.466 157.55 120.837 152.965 116.775C152.876 122.483 151.179 127.283 148.021 131.258C147.333 124.208 144.033 117.573 138.928 111.225C138.811 119.288 137.332 125.981 134.638 131.457C133.635 124.522 130.704 119.634 126.25 116.367C126.082 120.721 124.985 124.361 122.472 126.918C121.926 120.46 122.027 115.387 115.926 111.225C114.926 120.725 108.426 130.845 114.821 139.943C114.821 139.943 134.098 140.995 146.426 140.96C158.893 140.925 165.527 140.659 177.926 141.96C190.54 143.285 197.824 143.025 210.213 145.741C222.045 148.335 240.298 153.289 240.298 153.289Z" fill="#29A644"/>
<path d="M115.429 140.637L115.754 132.441C112.13 129.195 109.776 123.865 108.064 117.481C103.873 123.187 100.92 128.917 99.6009 134.678C94.9513 130.293 91.7711 123.954 89.2235 116.774C85.1945 121.986 82.7182 128.294 82.0221 135.858C77.0446 128.409 71.1655 122.391 64.5469 117.541C65.8357 124.227 65.5907 130.477 63.8315 136.296C60.5809 131.509 56.1356 127.754 50.7779 124.785C51.9298 130.376 51.3157 135.43 49.0962 139.996C46.8935 133.263 42.2322 127.503 35.8713 122.414C37.5067 130.31 37.5158 137.165 36.0748 143.095C33.5903 136.543 29.6681 132.408 24.6111 130.186C25.3928 134.473 25.1122 138.264 23.2143 141.305C19.5874 135.542 13.4498 132.126 6.59065 129.388C12.4127 137.627 17.1955 146.165 18.573 155.681C18.573 155.681 37.1311 150.572 49.1577 147.862C61.3196 145.122 68.0231 143.749 80.4088 142.328C93.0094 140.882 100.266 140.671 112.949 140.633C113.748 140.63 114.577 140.632 115.429 140.637Z" fill="#29A644"/>
<path d="M240 148C245.979 152.51 252.66 155.691 252.356 162.711C252.016 162.842 251.647 162.914 251.261 162.914C152.941 144.997 98.9291 145.254 4.79826 162.914C3.7156 162.914 4.04016 162.85 3.5 162C4.36891 158.192 7.28706 155.357 17 149C106.631 136.141 150.162 134.92 240 148Z" fill="#BE8F7D"/>
</svg>
