<svg xmlns="http://www.w3.org/2000/svg" width="1200" height="800" viewBox="0 0 1200 800">
  <defs>
    <linearGradient id='g1' gradientUnits='userSpaceOnUse' x1='10.06%' y1='-7.04%' x2='89.94%' y2='107.04%'>
      <stop stop-color='#c5e9ff' stop-opacity='.8' />
      <stop offset='1' stop-color='#56a2c9' stop-opacity='.7' />
    </linearGradient>
  </defs>

  <rect width="100%" height="100%" fill="transparent" />

  <g id="all" stroke="#0b1220" fill="url(#g1)">
    <g id="row-1" opacity="0" stroke-width="0">
      <polygon points="140.93,693.51 279.55,654.76 290.36,800.00 135.81,800.00" />
      <polygon
        points="439.17,646.08 497.65,602.82 509.34,599.54 597.14,650.04 607.26,685.54 589.41,800.00 429.74,800.00" />
      <polygon points="279.55,654.76 313.77,631.05 344.21,631.03 439.17,646.08 429.74,800.00 290.36,800.00" />
      <polygon points="0.00,661.00 106.94,654.84 140.93,693.51 135.81,800.00 0.00,800.00" />
      <polygon points="607.26,685.54 726.07,800.00 589.41,800.00" />
      <polygon
        points="607.26,685.54 597.14,650.04 776.91,615.09 779.03,615.79 858.54,697.71 876.61,733.60 897.49,800.00 726.07,800.00" />
      <polygon
        points="876.61,733.60 1019.66,567.92 1040.64,552.96 1092.41,555.05 1114.51,590.81 925.60,800.00 897.49,800.00" />
      <polygon points="1114.51,590.81 1119.19,593.15 1142.16,800.00 925.60,800.00" />
      <polygon points="1119.19,593.15 1200.00,603.27 1200.00,800.00 1142.16,800.00" />
    </g>

    <g id="row-2" opacity="0" stroke-width="0">
      <polygon points="0.00,661.00 0.00,430.58 4.48,431.61 108.99,596.59 106.94,654.84" />
      <polygon
        points="140.93,693.51 106.94,654.84 108.99,596.59 203.59,510.78 257.35,539.20 313.77,631.05 279.55,654.76" />
      <polygon points="344.21,631.03 313.77,631.05 257.35,539.20 334.36,435.56 335.89,434.75" />
      <polygon points="439.17,646.08 344.21,631.03 335.89,434.75 360.26,412.91 497.65,602.82" />
      <polygon
        points="509.34,599.54 497.65,602.82 360.26,412.91 374.06,342.00 472.86,309.12 554.31,316.78 609.82,369.41 616.07,382.27 616.10,384.03" />
      <polygon points="597.14,650.04 509.34,599.54 616.10,384.03 690.01,457.79 776.91,615.09" />
      <polygon points="776.91,615.09 690.01,457.79 803.96,462.72 843.05,490.09 779.03,615.79" />
      <polygon points="779.03,615.79 843.05,490.09 865.61,476.82 936.30,496.93 920.40,574.09 858.54,697.71" />
      <polygon points="876.61,733.60 858.54,697.71 920.40,574.09 1019.66,567.92" />
      <polygon points="1019.66,567.92 920.40,574.09 936.30,496.93 948.49,491.94 1040.64,552.96" />
      <polygon points="1092.41,555.05 1040.64,552.96 948.49,491.94 977.81,433.86 1096.68,529.95" />
      <polygon
        points="1119.19,593.15 1114.51,590.81 1092.41,555.05 1096.68,529.95 1121.73,453.31 1200.00,460.53 1200.00,603.27" />
    </g>

    <g id="row-3" opacity="0" stroke-width="0">
      <polygon points="61.86,243.85 135.86,283.98 135.87,284.77 33.59,423.42 4.48,431.61 0.00,430.58 0.00,345.51" />
      <polygon points="108.99,596.59 4.48,431.61 33.59,423.42 176.37,425.53 187.40,440.30 203.59,510.78" />
      <polygon points="257.35,539.20 203.59,510.78 187.40,440.30 334.36,435.56" />
      <polygon
        points="176.37,425.53 199.13,373.73 282.54,318.84 342.47,322.69 374.06,342.00 360.26,412.91 335.89,434.75 334.36,435.56 187.40,440.30" />
      <polygon
        points="396.86,170.43 446.37,240.22 472.86,309.12 374.06,342.00 342.47,322.69 327.63,232.68 377.95,164.16" />
      <polygon
        points="565.48,254.29 554.31,316.78 472.86,309.12 446.37,240.22 476.89,103.92 481.42,97.62 525.60,105.50" />
      <polygon points="760.94,204.39 609.82,369.41 554.31,316.78 565.48,254.29 667.49,143.68" />
      <polygon
        points="760.94,204.39 866.47,184.45 886.90,191.06 885.25,197.81 704.36,371.83 616.07,382.27 609.82,369.41" />
      <polygon points="803.96,462.72 690.01,457.79 616.10,384.03 616.07,382.27 704.36,371.83 789.58,376.59" />
      <polygon points="864.82,355.61 867.93,360.09 865.61,476.82 843.05,490.09 803.96,462.72 789.58,376.59" />
      <polygon points="867.93,360.09 985.30,404.50 977.81,433.86 948.49,491.94 936.30,496.93 865.61,476.82" />
      <polygon points="985.30,404.50 1017.96,382.52 1121.13,451.52 1121.73,453.31 1096.68,529.95 977.81,433.86" />
      <polygon points="1121.13,451.52 1017.96,382.52 1028.95,327.53 1092.61,302.24 1166.21,340.77" />
      <polygon points="1121.73,453.31 1121.13,451.52 1166.21,340.77 1200.00,328.95 1200.00,460.53" />
    </g>

    <g id="row-4" opacity="0" stroke-width="0">
      <polygon points="44.53,217.98 60.17,238.32 61.86,243.85 0.00,345.51 0.00,204.14" />
      <polygon points="60.17,238.32 44.53,217.98 82.44,128.79 193.25,144.62" />
      <polygon points="197.32,227.30 135.86,283.98 61.86,243.85 60.17,238.32 193.25,144.62 202.31,144.00" />
      <polygon points="33.59,423.42 135.87,284.77 199.13,373.73 176.37,425.53" />
      <polygon points="135.87,284.77 135.86,283.98 197.32,227.30 282.54,318.84 199.13,373.73" />
      <polygon
        points="342.47,322.69 282.54,318.84 197.32,227.30 202.31,144.00 217.31,128.21 229.92,128.30 327.63,232.68" />
      <polygon points="327.63,232.68 229.92,128.30 328.49,92.72 377.95,164.16" />
      <polygon points="476.89,103.92 396.86,170.43 377.95,164.16 328.49,92.72 390.46,8.95 481.42,97.62" />
      <polygon points="446.37,240.22 396.86,170.43 476.89,103.92" />
      <polygon points="525.60,105.50 481.42,97.62 390.46,8.95 390.38,0.00 636.49,0.00 636.74,17.40" />
      <polygon points="667.49,143.68 565.48,254.29 525.60,105.50 636.74,17.40 650.38,35.88" />
      <polygon points="866.47,184.45 760.94,204.39 667.49,143.68 650.38,35.88 793.87,87.16" />
      <polygon points="937.32,136.60 893.00,188.93 886.90,191.06 866.47,184.45 793.87,87.16 812.43,0.00 903.17,0.00" />
      <polygon points="1105.59,230.41 948.40,232.78 893.00,188.93 937.32,136.60 963.16,126.58 1152.14,152.81" />
      <polygon points="885.25,197.81 864.82,355.61 789.58,376.59 704.36,371.83" />
      <polygon
        points="948.40,232.78 1028.95,327.53 1017.96,382.52 985.30,404.50 867.93,360.09 864.82,355.61 885.25,197.81 886.90,191.06 893.00,188.93" />
      <polygon points="1105.59,230.41 1092.61,302.24 1028.95,327.53 948.40,232.78" />
      <polygon points="1166.21,340.77 1092.61,302.24 1105.59,230.41 1152.14,152.81 1200.00,134.10 1200.00,328.95" />
    </g>

    <g id="row-5" opacity="0" stroke-width="0">
      <polygon points="44.53,217.98 0.00,204.14 0.00,53.53 14.62,62.84 82.44,128.79" />
      <polygon points="193.51,52.91 14.62,62.84 0.00,53.53 0.00,0.00 189.68,0.00" />
      <polygon points="193.51,52.91 217.31,128.21 202.31,144.00 193.25,144.62 82.44,128.79 14.62,62.84" />
      <polygon points="390.46,8.95 328.49,92.72 229.92,128.30 217.31,128.21 193.51,52.91 189.68,0.00 390.38,0.00" />
      <polygon points="793.87,87.16 650.38,35.88 636.74,17.40 636.49,0.00 812.43,0.00" />
      <polygon points="963.16,126.58 937.32,136.60 903.17,0.00 1045.19,0.00" />
      <polygon points="1152.14,152.81 963.16,126.58 1045.19,0.00 1200.00,0.00 1200.00,134.10" />
    </g>
  </g>

  <animate id="show1" href="#row-1" attributeName="opacity" to="1" dur="5s" begin="resetStrokeRow5.end; 0s"
    restart="whenNotActive" fill="freeze" />
  <animate id="show2" href="#row-2" attributeName="opacity" to="1" dur="5s" begin="show1.end" restart="whenNotActive"
    fill="freeze" />
  <animate id="show3" href="#row-3" attributeName="opacity" to="1" dur="5s" begin="show2.end" restart="whenNotActive"
    fill="freeze" />
  <animate id="show4" href="#row-4" attributeName="opacity" to="1" dur="5s" begin="show3.end" restart="whenNotActive"
    fill="freeze" />
  <animate id="show5" href="#row-5" attributeName="opacity" to="1" dur="5s" begin="show4.end" restart="whenNotActive"
    fill="freeze" />

  <animate id="cracks1" href="#row-3" attributeName="stroke-width" to="1.2" dur="2s" begin="show5.end"
    restart="whenNotActive" fill="freeze" />
  <animate id="cracks2" href="#row-2" attributeName="stroke-width" to="1.2" dur="2s" begin="cracks1.end"
    restart="whenNotActive" fill="freeze" />
  <animate id="cracks3" href="#row-4" attributeName="stroke-width" to="1.2" dur="2s" begin="cracks1.end"
    restart="whenNotActive" fill="freeze" />
  <animate id="cracks4" href="#row-1" attributeName="stroke-width" to="1.2" dur="2s" begin="cracks2.end"
    restart="whenNotActive" fill="freeze" />
  <animate id="cracks5" href="#row-5" attributeName="stroke-width" to="1.2" dur="2s" begin="cracks3.end"
    restart="whenNotActive" fill="freeze" />

  <animateTransform id="break3" href="#row-3" attributeName="transform" type="translate" to="0, 500" dur="2s"
    begin="cracks5.end" restart="whenNotActive" fill="freeze" />

  <animate id="resetRow1" href="#row-1" attributeName="opacity" to="0" dur="0.1s" begin="break3.end"
    restart="whenNotActive" fill="freeze" />
  <animate id="resetRow2" href="#row-2" attributeName="opacity" to="0" dur="0.1s" begin="break3.end"
    restart="whenNotActive" fill="freeze" />
  <animate id="resetRow3" href="#row-3" attributeName="opacity" to="0" dur="0.1s" begin="break3.end"
    restart="whenNotActive" fill="freeze" />
  <animate id="resetRow4" href="#row-4" attributeName="opacity" to="0" dur="0.1s" begin="break3.end"
    restart="whenNotActive" fill="freeze" />
  <animate id="resetRow5" href="#row-5" attributeName="opacity" to="0" dur="0.1s" begin="break3.end"
    restart="whenNotActive" fill="freeze" />
  <animate id="resetStrokeRow1" href="#row-1" attributeName="stroke-width" to="0" dur="0.1s" begin="break3.end"
    restart="whenNotActive" fill="freeze" />
  <animate id="resetStrokeRow2" href="#row-2" attributeName="stroke-width" to="0" dur="0.1s" begin="break3.end"
    restart="whenNotActive" fill="freeze" />
  <animate id="resetStrokeRow3" href="#row-3" attributeName="stroke-width" to="0" dur="0.1s" begin="break3.end"
    restart="whenNotActive" fill="freeze" />
  <animate id="resetStrokeRow4" href="#row-4" attributeName="stroke-width" to="0" dur="0.1s" begin="break3.end"
    restart="whenNotActive" fill="freeze" />
  <animate id="resetStrokeRow5" href="#row-5" attributeName="stroke-width" to="0" dur="0.1s" begin="break3.end"
    restart="whenNotActive" fill="freeze" />

</svg>